<svg width="70" height="58" viewBox="0 0 70 58" fill="none" xmlns="http://www.w3.org/2000/svg">
<path d="M9.66666 31.4166C13.9758 31.9287 17.9874 33.8757 21.0558 36.9441C24.1243 40.0126 26.0712 44.0241 26.5833 48.3333C28.7195 47.1018 30.5063 45.3459 31.7749 43.2316C33.0435 41.1172 33.7519 38.7143 33.8333 36.25C37.8912 34.8225 41.4346 32.2238 44.0156 28.7825C46.5965 25.3412 48.0991 21.2119 48.3333 16.9166C48.3333 14.9938 47.5695 13.1497 46.2098 11.7901C44.8502 10.4305 43.0061 9.66663 41.0833 9.66663C36.7881 9.90082 32.6588 11.4034 29.2175 13.9844C25.7762 16.5653 23.1775 20.1088 21.75 24.1666C19.2856 24.248 16.8827 24.9565 14.7684 26.2251C12.6541 27.4937 10.8982 29.2805 9.66666 31.4166" stroke="#4C7DE0" stroke-width="5" stroke-linecap="round" stroke-linejoin="round"/>
<path d="M16.9167 33.8333C14.4015 35.2532 12.3677 37.392 11.076 39.9754C9.78425 42.5588 9.29351 45.4691 9.66666 48.3333C12.5308 48.7064 15.4411 48.2157 18.0245 46.924C20.6079 45.6323 22.7467 43.5984 24.1667 41.0833" stroke="#4C7DE0" stroke-width="5" stroke-linecap="round" stroke-linejoin="round"/>
<path d="M36.25 24.1666C37.5847 24.1666 38.6667 23.0846 38.6667 21.7499C38.6667 20.4152 37.5847 19.3333 36.25 19.3333C34.9153 19.3333 33.8333 20.4152 33.8333 21.7499C33.8333 23.0846 34.9153 24.1666 36.25 24.1666Z" stroke="#4C7DE0" stroke-width="5" stroke-linecap="round" stroke-linejoin="round"/>
</svg>
